<?xml version="1.0" encoding="utf-8"?>
<!-- Generator: Adobe Illustrator 16.0.0, SVG Export Plug-In . SVG Version: 6.00 Build 0)  -->
<!DOCTYPE svg PUBLIC "-//W3C//DTD SVG 1.1//EN" "http://www.w3.org/Graphics/SVG/1.1/DTD/svg11.dtd">
<svg version="1.1" id="圖層_1" xmlns="http://www.w3.org/2000/svg" xmlns:xlink="http://www.w3.org/1999/xlink" x="0px" y="0px"
	 width="24px" height="24px" viewBox="0 0 24 24" enable-background="new 0 0 24 24" xml:space="preserve">
<path d="M7.86,8.117c-0.187-0.156-0.49-0.156-0.677,0L2.14,12.316l-0.056,0.056c-0.131,0.158-0.108,0.377,0.064,0.515l5.042,4.003
	l0.068,0.045c0.189,0.104,0.447,0.083,0.609-0.058l0.054-0.057c0.125-0.158,0.1-0.372-0.07-0.508L3.679,13h18.345l0.086-0.008
	c0.223-0.043,0.391-0.246,0.391-0.492c0-0.276-0.213-0.5-0.477-0.5H3.872L7.86,8.68l0.055-0.055C8.044,8.47,8.026,8.255,7.86,8.117z
	"/>
</svg>
